HIERARCHY
ROOT hip
{
  OFFSET 0 0 0
  CHANNELS 6 Xposition Yposition Zposition Zrotation Yrotation Xrotation
  JOINT abdomen
  {
    OFFSET 0 20.6881 -0.73152
    CHANNELS 3 Zrotation Xrotation Yrotation
    JOINT chest
    {
      OFFSET 0 11.7043 -0.48768
      CHANNELS 3 Zrotation Xrotation Yrotation
      JOINT neck
      {
        OFFSET 0 22.1894 -2.19456
        CHANNELS 3 Zrotation Xrotation Yrotation
        JOINT head
        {
          OFFSET -0.24384 7.07133 1.2192
          CHANNELS 3 Zrotation Xrotation Yrotation
          JOINT leftEye
          {
            OFFSET 4.14528 8.04674 8.04672
            CHANNELS 3 Zrotation Xrotation Yrotation
            End Site
            {
              OFFSET 1 0 0
            }
          }
          JOINT rightEye
          {
            OFFSET -3.6576 8.04674 8.04672
            CHANNELS 3 Zrotation Xrotation Yrotation
            End Site
            {
              OFFSET 1 0 0
            }
          }
        }
      }
      JOINT rCollar
      {
        OFFSET -2.68224 19.2634 -4.8768
        CHANNELS 3 Zrotation Xrotation Yrotation
        JOINT rShldr
        {
          OFFSET -8.77824 -1.95073 1.46304
          CHANNELS 3 Zrotation Xrotation Yrotation
          JOINT rForeArm
          {
            OFFSET -28.1742 -1.7115 0.48768
            CHANNELS 3 Zrotation Xrotation Yrotation
            JOINT rHand
            {
              OFFSET -22.5879 0.773209 7.07136
              CHANNELS 3 Zrotation Xrotation Yrotation
              JOINT rThumb1
              {
                OFFSET -1.2192 -0.487915 3.41376
                CHANNELS 3 Zrotation Xrotation Yrotation
                JOINT rThumb2
                {
                  OFFSET -3.37035 -0.52449 3.41376
                  CHANNELS 3 Zrotation Xrotation Yrotation
                  End Site
                  {
                    OFFSET -1.78271 -1.18214 1.43049
                  }
                }
              }
              JOINT rIndex1
              {
                OFFSET -7.75947 0.938293 5.60832
                CHANNELS 3 Zrotation Xrotation Yrotation
                JOINT rIndex2
                {
                  OFFSET -2.54057 -0.884171 1.56538
                  CHANNELS 3 Zrotation Xrotation Yrotation
                  End Site
                  {
                    OFFSET -1.62519 -0.234802 1.16502
                  }
                }
              }
              JOINT rMid1
              {
                OFFSET -8.24714 1.18213 3.41376
                CHANNELS 3 Zrotation Xrotation Yrotation
                JOINT rMid2
                {
                  OFFSET -3.10165 -0.590103 1.0647
                  CHANNELS 3 Zrotation Xrotation Yrotation
                  End Site
                  {
                    OFFSET -2.48547 -0.328903 0.83742
                  }
                }
              }
              JOINT rRing1
              {
                OFFSET -8.82822 0.546677 1.51678
                CHANNELS 3 Zrotation Xrotation Yrotation
                JOINT rRing2
                {
                  OFFSET -2.60934 -0.819778 -0.0198488
                  CHANNELS 3 Zrotation Xrotation Yrotation
                  End Site
                  {
                    OFFSET -2.33842 -0.294052 0.168128
                  }
                }
              }
              JOINT rPinky1
              {
                OFFSET -8.27202 -0.0477905 -0.4584
                CHANNELS 3 Zrotation Xrotation Yrotation
                JOINT rPinky2
                {
                  OFFSET -1.82734 -0.647385 -0.700984
                  CHANNELS 3 Zrotation Xrotation Yrotation
                  End Site
                  {
                    OFFSET -1.69225 -0.51767 -0.607171
                  }
                }
              }
            }
          }
        }
      }
      JOINT lCollar
      {
        OFFSET 2.68224 19.2634 -4.8768
        CHANNELS 3 Zrotation Xrotation Yrotation
        JOINT lShldr
        {
          OFFSET 8.77824 -1.95073 1.46304
          CHANNELS 3 Zrotation Xrotation Yrotation
          JOINT lForeArm
          {
            OFFSET 28.1742 -1.7115 0.48768
            CHANNELS 3 Zrotation Xrotation Yrotation
            JOINT lHand
            {
              OFFSET 22.5879 0.773209 7.07136
              CHANNELS 3 Zrotation Xrotation Yrotation
              JOINT lThumb1
              {
                OFFSET 1.2192 -0.487915 3.41376
                CHANNELS 3 Zrotation Xrotation Yrotation
                JOINT lThumb2
                {
                  OFFSET 3.37035 -0.52449 3.41376
                  CHANNELS 3 Zrotation Xrotation Yrotation
                  End Site
                  {
                    OFFSET 1.78271 -1.18214 1.43049
                  }
                }
              }
              JOINT lIndex1
              {
                OFFSET 7.75947 0.938293 5.60832
                CHANNELS 3 Zrotation Xrotation Yrotation
                JOINT lIndex2
                {
                  OFFSET 2.54057 -0.884171 1.56538
                  CHANNELS 3 Zrotation Xrotation Yrotation
                  End Site
                  {
                    OFFSET 1.62519 -0.234802 1.16502
                  }
                }
              }
              JOINT lMid1
              {
                OFFSET 8.24714 1.18213 3.41376
                CHANNELS 3 Zrotation Xrotation Yrotation
                JOINT lMid2
                {
                  OFFSET 3.10165 -0.590103 1.0647
                  CHANNELS 3 Zrotation Xrotation Yrotation
                  End Site
                  {
                    OFFSET 2.48547 -0.328903 0.83742
                  }
                }
              }
              JOINT lRing1
              {
                OFFSET 8.82822 0.546677 1.51678
                CHANNELS 3 Zrotation Xrotation Yrotation
                JOINT lRing2
                {
                  OFFSET 2.60934 -0.819778 -0.0198488
                  CHANNELS 3 Zrotation Xrotation Yrotation
                  End Site
                  {
                    OFFSET 2.33842 -0.294052 0.168128
                  }
                }
              }
              JOINT lPinky1
              {
                OFFSET 8.27202 -0.0477905 -0.4584
                CHANNELS 3 Zrotation Xrotation Yrotation
                JOINT lPinky2
                {
                  OFFSET 1.82734 -0.647385 -0.700984
                  CHANNELS 3 Zrotation Xrotation Yrotation
                  End Site
                  {
                    OFFSET 1.69225 -0.51767 -0.607171
                  }
                }
              }
            }
          }
        }
      }
    }
  }
  JOINT rButtock
  {
    OFFSET -8.77824 4.35084 1.2192
    CHANNELS 3 Zrotation Xrotation Yrotation
    JOINT rThigh
    {
      OFFSET 0 -1.70687 -2.19456
      CHANNELS 3 Zrotation Xrotation Yrotation
      JOINT rShin
      {
        OFFSET 0 -36.8199 0.73152
        CHANNELS 3 Zrotation Xrotation Yrotation
        JOINT rFoot
        {
          OFFSET 0.73152 -45.1104 -5.12064
          CHANNELS 3 Zrotation Xrotation Yrotation
          End Site
          {
            OFFSET -1.1221 -3.69964 12.103
          }
        }
      }
    }
  }
  JOINT lButtock
  {
    OFFSET 8.77824 4.35084 1.2192
    CHANNELS 3 Zrotation Xrotation Yrotation
    JOINT lThigh
    {
      OFFSET 0 -1.70687 -2.19456
      CHANNELS 3 Zrotation Xrotation Yrotation
      JOINT lShin
      {
        OFFSET 0 -36.8199 0.73152
        CHANNELS 3 Zrotation Xrotation Yrotation
        JOINT lFoot
        {
          OFFSET -0.73152 -45.1104 -5.12064
          CHANNELS 3 Zrotation Xrotation Yrotation
          End Site
          {
            OFFSET 1.1221 -3.69964 12.103
          }
        }
      }
    }
  }
}
MOTION
Frames:	4
Frame Time:	0.00833333
126.006 85.0697 -107.729 0.0 0.0 0.0 0.202514 -0.000639073 0.00577304 0.0558295 -0.000931037 0.00967165 -1.47908e-15 0.0 -3.41661e-17 -4.41675e-15 3.18055e-15 -9.31803e-17 -0.0 0.0 0.0 -0.0 0.0 0.0 -6.97101e-16 -7.76503e-19 1.49089e-16 -1.31587e-14 3.60297e-16 5.96354e-16 -2.65477e-13 8.15017e-14 -3.18055e-15 -3.04421e-12 -7.46933e-14 -6.36111e-14 -7.1812e-12 1.00192e-14 -1.43125e-13 -1.24161e-11 1.27222e-14 -2.53649e-13 -7.17891e-12 8.74653e-15 -1.43125e-13 7.73091 5.47488 0.417314 -7.18209e-12 9.34288e-15 -1.39944e-13 2.90554 0.965183 0.102902 -7.17061e-12 1.00386e-14 -1.46306e-13 10.2786 0.731801 0.0259123 -7.18567e-12 1.19271e-14 -1.43125e-13 2.22167 -0.733487 -0.20892 -7.93834e-16 -7.76503e-19 -1.49089e-16 -1.78644e-14 1.55301e-16 -1.39149e-15 -2.67514e-13 -7.89175e-14 1.27222e-14 -3.04454e-12 8.25453e-14 -7.63333e-14 -7.18318e-12 4.04177e-15 -1.55847e-13 -1.23974e-11 0.0 -2.5524e-13 -7.18726e-12 1.98785e-15 -1.46306e-13 -7.73091 5.47488 -0.417314 -7.18333e-12 3.97569e-15 -1.49486e-13 -2.90554 0.965183 -0.102902 -7.19076e-12 4.17448e-15 -1.4551e-13 -10.2786 0.731801 -0.0259123 -7.17633e-12 4.77083e-15 -1.52667e-13 -2.22167 -0.733487 0.20892 -2.03217e-16 0.0 -3.88251e-19 0.677485 -3.60113 -0.0536493 -0.00454017 0.970124 -0.0387446 -0.52469 2.63023 0.113976 2.03217e-16 0.0 3.88251e-19 -0.369391 -2.81566 0.0342633 0.00682578 -0.452698 0.059932 0.522488 3.26753 -0.126813
125.643 82.3898 -110.765 -3.5587 10.8567 10.3842 -0.483028 1.94304 3.2055 0.702767 -1.07843 0.924091 1.60442 1.90212 -1.69767 -0.591811 -7.88059 -3.7989 -0.0 0.0 0.0 -0.0 0.0 0.0 -8.44068e-15 2.10456e-14 8.1183e-14 21.6618 5.15246 -2.01187 -11.7355 -8.65977 13.3181 0.000540855 -0.588572 -0.0827064 -6.00474e-10 4.59983e-10 4.95001e-10 -1.03982e-09 7.96976e-10 8.5666e-10 -6.0047e-10 4.59982e-10 4.94999e-10 7.73091 5.47488 0.417314 -6.00474e-10 4.59982e-10 4.95004e-10 2.90554 0.965183 0.102902 -6.00464e-10 4.59983e-10 4.94997e-10 10.2786 0.731801 0.0259123 -6.00483e-10 4.59991e-10 4.94998e-10 2.22167 -0.733487 -0.20892 -8.53461e-15 2.10456e-14 8.09574e-14 -22.8426 14.6109 3.85451 6.93157 -3.97683 -9.77888 -0.0270175 -3.66862 0.51185 1.50135e-10 3.5099e-10 -4.04176e-12 2.60845e-10 6.07108e-10 -5.51242e-12 1.50129e-10 3.50989e-10 -4.03245e-12 -7.73091 5.47488 -0.417314 1.50135e-10 3.50989e-10 -4.03809e-12 -2.90554 0.965183 -0.102902 1.50126e-10 3.5099e-10 -4.03569e-12 -10.2786 0.731801 -0.0259123 1.5014e-10 3.5099e-10 -4.04403e-12 -2.22167 -0.733487 0.20892 -2.03217e-16 0.0 -3.88251e-19 0.0478653 -14.0485 -2.77345 0.048402 21.2763 0.244123 -0.710577 13.5123 2.51117 2.03217e-16 0.0 3.88251e-19 -0.945646 -12.621 2.03124 0.0252467 9.5957 -0.0413036 0.605191 -0.025757 0.611086
125.913 82.7575 -109.989 -2.8116 10.5124 10.3914 -1.43427 3.96919 6.63177 1.42024 -2.21876 1.90082 3.43956 3.89446 -3.50931 -2.39938 -16.0857 -8.0852 -0.0 0.0 0.0 -0.0 0.0 0.0 -1.6434e-14 4.47258e-14 1.63255e-13 44.9378 10.5995 -4.19363 -19.836 -16.3121 28.3677 -0.000866916 -1.24344 -0.174761 -1.20875e-09 9.06746e-10 1.01586e-09 -2.09322e-09 1.57134e-09 1.75789e-09 -1.20875e-09 9.06745e-10 1.01585e-09 7.73091 5.47488 0.417314 -1.20875e-09 9.06746e-10 1.01586e-09 2.90554 0.965183 0.102902 -1.20874e-09 9.06747e-10 1.01585e-09 10.2786 0.731801 0.0259123 -1.20877e-09 9.06761e-10 1.01585e-09 2.22167 -0.733487 -0.20892 -1.6525e-14 4.4726e-14 1.63109e-13 -49.4368 29.8372 8.92669 12.8204 -7.81214 -20.2888 0.0166623 -7.5915 1.06641 3.16364e-10 7.10983e-10 -4.57861e-12 5.49544e-10 1.22972e-09 -4.81501e-12 3.16357e-10 7.10983e-10 -4.56966e-12 -7.73091 5.47488 -0.417314 3.16364e-10 7.10981e-10 -4.57781e-12 -2.90554 0.965183 -0.102902 3.16353e-10 7.10981e-10 -4.57711e-12 -10.2786 0.731801 -0.0259123 3.16368e-10 7.10981e-10 -4.58676e-12 -2.22167 -0.733487 0.20892 -2.03217e-16 0.0 -3.88251e-19 -1.77909 -24.8889 -6.06341 -0.182414 42.6559 0.691145 -1.99104 24.9705 5.39366 2.03217e-16 0.0 3.88251e-19 -0.730876 -23.0033 4.40532 0.0861415 20.2436 -0.155815 0.783033 -3.48519 1.37943
126.19 82.5496 -109.277 -2.0621 10.1536 10.3195 -2.5048 5.75748 9.64854 2.09992 -3.23012 2.75682 5.15235 5.68628 -5.11544 -5.12043 -23.2076 -12.2977 -0.0 0.0 0.0 -0.0 0.0 0.0 -2.39278e-14 6.31383e-14 2.43251e-13 66.1029 15.3797 -6.23535 -23.6036 -20.2785 42.6855 -0.00347709 -1.7657 -0.248224 -1.78706e-09 1.37993e-09 1.48529e-09 -3.09462e-09 2.3909e-09 2.57049e-09 -1.78705e-09 1.37993e-09 1.48528e-09 7.73091 5.47488 0.417314 -1.78706e-09 1.37993e-09 1.48529e-09 2.90554 0.965183 0.102902 -1.78705e-09 1.37993e-09 1.48528e-09 10.2786 0.731801 0.0259123 -1.78708e-09 1.37995e-09 1.48528e-09 2.22167 -0.733487 -0.20892 -2.40162e-14 6.31385e-14 2.4317e-13 -76.1941 42.8877 15.3576 16.8634 -10.5417 -29.818 0.118697 -11.0023 1.5611 4.64771e-10 1.05296e-09 -1.18136e-11 8.07329e-10 1.82132e-09 -1.60268e-11 4.64762e-10 1.05296e-09 -1.18047e-11 -7.73091 5.47488 -0.417314 4.64771e-10 1.05296e-09 -1.18153e-11 -2.90554 0.965183 -0.102902 4.64758e-10 1.05296e-09 -1.1816e-11 -10.2786 0.731801 -0.0259123 4.64773e-10 1.05296e-09 -1.18267e-11 -2.22167 -0.733487 0.20892 -2.03217e-16 0.0 -3.88251e-19 -4.73633 -34.6047 -9.69103 -1.00089 61.8797 1.61249 -4.33358 35.0037 8.67535 2.03217e-16 0.0 3.88251e-19 0.270958 -32.0649 6.94089 0.180393 29.6922 -0.278621 1.02604 -6.60796 2.10043
